<svg width="219" height="219" viewBox="0 0 219 219" fill="none" xmlns="http://www.w3.org/2000/svg">
<g clip-path="url(#clip0_154_1250)">
<path d="M30.4392 112.608L27.4095 85.0162C25.2486 65.3392 25.2486 45.4848 27.4095 25.8083L29.9351 2.80661C30.183 0.550648 32.6711 -0.715536 34.6317 0.428114C43.42 5.55384 64.8886 20.5724 88.0984 55.4123L30.4392 112.608Z" fill="#C6A38B"/>
<path d="M36.1016 84.0621C34.014 65.0514 34.014 45.7733 36.1016 26.7626L37.6268 12.8699C46.8705 19.6171 61.1706 32.2912 76.761 54.3423L37.1523 93.6326L36.1016 84.0621Z" fill="#FFC3BB"/>
<path d="M188.561 112.608L191.59 85.0162C193.751 65.3392 193.751 45.4848 191.59 25.8083L189.065 2.80661C188.817 0.550648 186.329 -0.715536 184.368 0.428114C175.58 5.55384 154.111 20.5724 130.901 55.4123L188.561 112.608Z" fill="#C6A38B"/>
<path d="M142.24 54.343C157.83 32.292 172.13 19.6178 181.373 12.8706L182.899 26.7634C184.986 45.774 184.986 65.0522 182.899 84.0628L181.848 93.6339L142.24 54.343Z" fill="#FFC3BB"/>
<path d="M153.179 202.497L136.172 212.007C119.496 221.332 99.5043 221.332 82.8285 212.007L65.8215 202.497C43.5259 190.029 29.5923 165.641 29.5923 139.086V121.161C29.5923 82.8257 59.1431 51.7485 95.5961 51.7485H123.405C159.858 51.7485 189.409 82.8257 189.409 121.161V139.086C189.408 165.642 175.474 190.029 153.179 202.497Z" fill="#E8D8CA"/>
<path d="M96.2737 167.362L102.817 147.536C105.213 140.278 113.751 140.271 116.154 147.526L122.726 167.362H96.2737V167.362Z" fill="#D6C8BD"/>
<path d="M160.309 119.679C136.722 118.813 130.721 133.119 129.201 141.006C132.804 147.626 139.821 152.119 147.888 152.119C159.63 152.119 169.149 142.6 169.149 130.858C169.149 126.721 168.329 123.469 166.285 120.202C164.715 120.33 162.497 119.759 160.309 119.679Z" fill="#FFEBD9"/>
<path d="M160.309 119.679C141.015 118.971 133.487 128.416 130.554 136.194C132.838 143.598 139.745 148.994 147.888 148.994C157.889 148.994 166.024 140.859 166.024 130.858C166.024 126.66 164.587 122.795 162.184 119.717C161.585 119.713 160.967 119.703 160.309 119.679Z" fill="#FFE7A4"/>
<path d="M148.009 120.852C145.231 121.572 142.848 122.578 140.812 123.782C138.999 125.595 137.876 128.098 137.876 130.859C137.876 136.379 142.368 140.871 147.888 140.871C153.409 140.871 157.901 136.379 157.901 130.859C157.901 125.378 153.474 120.917 148.009 120.852Z" fill="#333333"/>
<path d="M129.058 143.205C128.982 143.205 128.906 143.199 128.829 143.186C128.067 143.06 127.551 142.34 127.676 141.578C128.362 137.428 130.19 131.451 135.008 126.549C140.798 120.658 149.327 117.876 160.361 118.28C162.289 118.351 164.012 118.335 165.482 118.231C166.247 118.172 166.921 118.756 166.976 119.527C167.031 120.297 166.45 120.967 165.68 121.021C164.109 121.132 162.285 121.15 160.258 121.076C137.464 120.228 131.788 133.848 130.437 142.034C130.324 142.718 129.73 143.205 129.058 143.205Z" fill="#333333"/>
<path d="M58.6909 119.679C82.2779 118.813 88.2792 133.119 89.7989 141.006C86.1962 147.626 79.1787 152.119 71.1116 152.119C59.3696 152.119 49.8506 142.6 49.8506 130.858C49.8506 126.721 50.6708 123.469 52.7153 120.202C54.2847 120.33 56.5027 119.759 58.6909 119.679Z" fill="#FFEBD9"/>
<path d="M58.691 119.679C77.9854 118.971 85.5131 128.416 88.4461 136.194C86.1621 143.598 79.2555 148.994 71.1117 148.994C61.1115 148.994 52.9756 140.859 52.9756 130.858C52.9756 126.66 54.413 122.795 56.8161 119.717C57.4153 119.713 58.033 119.703 58.691 119.679Z" fill="#FFE7A4"/>
<path d="M70.9914 120.852C73.7688 121.572 76.1518 122.578 78.1884 123.782C80.0012 125.595 81.1242 128.098 81.1242 130.859C81.1242 136.379 76.6324 140.871 71.1117 140.871C65.5909 140.871 61.0991 136.379 61.0991 130.859C61.0991 125.378 65.526 120.917 70.9914 120.852Z" fill="#333333"/>
<path d="M89.9416 143.205C89.2691 143.205 88.676 142.719 88.5629 142.034C87.2117 133.848 81.527 120.233 58.7419 121.077C56.7125 121.15 54.8891 121.132 53.3202 121.021C52.5497 120.967 51.9695 120.298 52.0238 119.527C52.0792 118.756 52.7439 118.177 53.5182 118.231C54.9881 118.335 56.7114 118.352 58.6395 118.281C69.6827 117.877 78.203 120.658 83.9923 126.549C88.8097 131.452 90.6382 137.428 91.3236 141.579C91.4495 142.341 90.9336 143.061 90.171 143.187C90.0938 143.198 90.0171 143.205 89.9416 143.205Z" fill="#333333"/>
<path d="M97.1515 161.868C84.4679 161.868 75.1973 173.841 78.3731 186.12C79.5441 190.647 82.9091 194.284 87.3315 195.803C91.6341 197.281 96.3872 196.563 100.062 193.881L109.341 187.11V161.868H101.722H97.1515Z" fill="#FFEBD9"/>
<path d="M121.849 161.868H117.278H109.658V187.11L118.937 193.881C122.612 196.563 127.365 197.281 131.668 195.803C136.091 194.285 139.455 190.647 140.627 186.12C143.802 173.841 134.532 161.868 121.849 161.868Z" fill="#FFEBD9"/>
<path d="M109.5 187.778C108.727 187.778 108.101 187.152 108.101 186.379V174.068C108.101 173.295 108.727 172.669 109.5 172.669C110.273 172.669 110.899 173.295 110.899 174.068V186.379C110.899 187.152 110.273 187.778 109.5 187.778Z" fill="#333333"/>
<path d="M121.879 164.798L111.703 175.298C110.498 176.542 108.503 176.542 107.298 175.298L97.1217 164.798C95.2362 162.853 96.6148 159.597 99.324 159.597H119.676C122.386 159.597 123.764 162.853 121.879 164.798Z" fill="#FFAB9F"/>
<path d="M82.6125 115.809C85.7233 118.122 89.6516 118.107 91.3866 115.774C93.1216 113.442 92.0063 109.675 88.8955 107.361C85.7847 105.048 81.8564 105.063 80.1214 107.396C78.3864 109.728 79.5017 113.495 82.6125 115.809Z" fill="#C6A38B"/>
<path d="M130.095 107.369C126.985 109.683 125.869 113.45 127.604 115.782C129.339 118.115 133.268 118.13 136.378 115.817C139.489 113.503 140.604 109.736 138.869 107.404C137.134 105.071 133.206 105.056 130.095 107.369Z" fill="#C6A38B"/>
<path d="M113.773 95.9133C118.281 91.219 120.797 84.9631 120.797 78.4548V51.7485H98.2029V78.4553C98.2029 84.9631 100.72 91.219 105.227 95.9139L109.5 100.364L113.773 95.9133Z" fill="#C6A38B"/>
<path d="M83.4422 83.2793C85.1829 83.2793 86.5934 81.8682 86.5934 80.1281V52.394C84.4583 52.7001 82.3556 53.113 80.291 53.6283V80.1281C80.291 81.8682 81.7015 83.2793 83.4422 83.2793Z" fill="#C6A38B"/>
<path d="M133.239 52.5166V80.1281C133.239 81.8688 134.65 83.2793 136.39 83.2793C138.13 83.2793 139.541 81.8682 139.541 80.1281V53.8421C137.477 53.2966 135.375 52.8518 133.239 52.5166Z" fill="#C6A38B"/>
</g>
<defs>
<clipPath id="clip0_154_1250">
<rect width="219" height="219" fill="white"/>
</clipPath>
</defs>
</svg>
