<svg width="219" height="219" viewBox="0 0 219 219" fill="none" xmlns="http://www.w3.org/2000/svg">
<path d="M166.508 126.457C166.508 126.457 154.812 121.666 154.812 111.954V60.0205C154.812 56.4343 154.106 52.8833 152.733 49.5701C151.361 46.257 149.349 43.2465 146.814 40.7107C144.278 38.175 141.267 36.1635 137.954 34.7911C134.641 33.4187 131.09 32.7124 127.504 32.7124H91.4962C87.9101 32.7124 84.359 33.4187 81.0458 34.7911C77.7327 36.1635 74.7223 38.175 72.1865 40.7108C69.6507 43.2466 67.6392 46.257 66.2668 49.5701C64.8945 52.8833 64.1881 56.4343 64.1881 60.0205V111.954C64.1881 121.666 52.4916 126.457 52.4916 126.457C52.4916 126.457 56.2432 134.644 64.1882 135.221C64.1882 135.221 57.5315 155.2 74.174 170.291L86.1446 157.644C86.1446 157.644 88.7059 173.884 109.523 188.735C130.339 173.884 132.9 157.644 132.9 157.644L144.871 170.291C161.514 155.2 154.857 135.221 154.857 135.221H154.812C162.757 134.644 166.508 126.457 166.508 126.457Z" fill="#FFBE6A"/>
<path d="M77.7988 40.4935C79.6301 33.6593 72.4408 27.923 66.1839 31.2255L38.3716 45.9049C27.221 51.9624 29.9157 70.9153 29.9157 70.9153L38.3716 66.931C38.3716 66.931 34.3419 77.0233 38.3716 86.4549L44.2311 83.8661C44.2311 83.8661 46.4218 97.4558 58.7385 111.627L77.7988 40.4935Z" fill="#FFAA3B"/>
<path d="M141.201 40.4935C139.37 33.6593 146.559 27.923 152.816 31.2255L180.629 45.9051C191.779 51.9624 189.084 70.9153 189.084 70.9153L180.629 66.931C180.629 66.931 184.658 77.0233 180.629 86.4549L174.769 83.8661C174.769 83.8661 172.578 97.4558 160.262 111.627L141.201 40.4935Z" fill="#FFAA3B"/>
<path d="M98.6445 114.575V131.306C98.6502 134.182 99.7964 136.937 101.832 138.968C103.867 140.999 106.625 142.14 109.5 142.14C112.375 142.14 115.133 140.999 117.168 138.968C119.203 136.937 120.349 134.182 120.355 131.306V114.575H120.376C117.497 114.575 114.736 113.431 112.701 111.395C110.665 109.359 109.521 106.598 109.521 103.719C109.521 106.598 108.378 109.359 106.342 111.395C104.306 113.431 101.545 114.575 98.666 114.575" fill="#FF5850"/>
<path d="M87.9101 63.4844C86.2771 63.4863 84.7116 64.1358 83.5569 65.2905C82.4022 66.4452 81.7526 68.0108 81.7507 69.6437V73.9806C81.7507 75.6142 82.3997 77.1809 83.5548 78.336C84.7099 79.4911 86.2765 80.14 87.9101 80.14C89.5437 80.14 91.1103 79.4911 92.2654 78.336C93.4206 77.1809 94.0695 75.6142 94.0695 73.9806V69.6437C94.0676 68.0108 93.418 66.4452 92.2633 65.2905C91.1086 64.1358 89.5431 63.4863 87.9101 63.4844Z" fill="#2B1716"/>
<path d="M131.133 63.4844C129.5 63.4863 127.934 64.1358 126.78 65.2905C125.625 66.4452 124.975 68.0108 124.973 69.6437V73.9806C124.973 75.6142 125.622 77.1809 126.777 78.336C127.933 79.4911 129.499 80.14 131.133 80.14C132.766 80.14 134.333 79.4911 135.488 78.336C136.643 77.1809 137.292 75.6142 137.292 73.9806V69.6437C137.29 68.0108 136.641 66.4452 135.486 65.2905C134.331 64.1358 132.766 63.4863 131.133 63.4844Z" fill="#2B1716"/>
<path d="M131.21 100.982C130.484 100.982 129.788 101.271 129.275 101.784C128.761 102.297 128.473 102.994 128.473 103.72C128.473 105.722 127.733 107.654 126.396 109.144C125.058 110.634 123.217 111.576 121.226 111.791C119.235 112.005 117.235 111.476 115.611 110.305C113.987 109.134 112.853 107.404 112.427 105.448C112.724 105.215 112.993 104.948 113.227 104.651L119.428 96.7236C119.971 96.0287 120.307 95.1953 120.399 94.3184C120.492 93.4414 120.336 92.5562 119.949 91.7636C119.563 90.9711 118.961 90.303 118.213 89.8357C117.466 89.3684 116.602 89.1206 115.72 89.1206H103.323C102.441 89.1206 101.577 89.3685 100.829 89.8359C100.081 90.3034 99.48 90.9716 99.0936 91.7644C98.7072 92.5572 98.5513 93.4426 98.6439 94.3197C98.7364 95.1968 99.0735 96.0302 99.6169 96.725L105.816 104.651C106.04 104.937 106.296 105.197 106.579 105.424C106.159 107.384 105.028 109.119 103.404 110.294C101.781 111.47 99.78 112.004 97.7868 111.792C95.7936 111.58 93.9492 110.639 92.6089 109.148C91.2686 107.658 90.5272 105.724 90.5275 103.72C90.5275 102.994 90.2391 102.297 89.7257 101.784C89.2123 101.271 88.516 100.982 87.79 100.982C87.064 100.982 86.3677 101.271 85.8543 101.784C85.3409 102.297 85.0525 102.994 85.0525 103.72C85.0489 106.572 85.9439 109.353 87.6104 111.668C89.2769 113.983 91.6302 115.714 94.3363 116.616C97.0424 117.518 99.9637 117.544 102.686 116.691C105.408 115.839 107.792 114.15 109.5 111.866C111.208 114.15 113.592 115.839 116.314 116.692C119.036 117.544 121.958 117.518 124.664 116.616C127.37 115.715 129.723 113.983 131.39 111.668C133.056 109.353 133.951 106.572 133.948 103.72C133.948 102.994 133.659 102.298 133.146 101.784C132.633 101.271 131.936 100.982 131.21 100.982Z" fill="#2B1716"/>
</svg>
